<?xml version="1.0" encoding="utf-8" standalone="no"?>
<!DOCTYPE svg PUBLIC "-//W3C//DTD SVG 1.1//EN"
  "http://www.w3.org/Graphics/SVG/1.1/DTD/svg11.dtd">
<!-- Created with matplotlib (https://matplotlib.org/) -->
<svg height="345.6pt" version="1.1" viewBox="0 0 460.8 345.6" width="460.8pt" xmlns="http://www.w3.org/2000/svg" xmlns:xlink="http://www.w3.org/1999/xlink">
 <defs>
  <style type="text/css">
*{stroke-linecap:butt;stroke-linejoin:round;}
  </style>
 </defs>
 <g id="figure_1">
  <g id="patch_1">
   <path d="M 0 345.6 
L 460.8 345.6 
L 460.8 0 
L 0 0 
z
" style="fill:#ffffff;"/>
  </g>
  <g id="axes_1">
   <g id="patch_2">
    <path d="M 57.6 307.584 
L 414.72 307.584 
L 414.72 41.472 
L 57.6 41.472 
z
" style="fill:#ffffff;"/>
   </g>
   <g id="matplotlib.axis_1">
    <g id="xtick_1">
     <g id="line2d_1">
      <defs>
       <path d="M 0 0 
L 0 3.5 
" id="mccc958827e" style="stroke:#000000;stroke-width:0.8;"/>
      </defs>
      <g>
       <use style="stroke:#000000;stroke-width:0.8;" x="73.832727" xlink:href="#mccc958827e" y="307.584"/>
      </g>
     </g>
     <g id="text_1">
      <!-- 0 -->
      <defs>
       <path d="M 31.78125 66.40625 
Q 24.171875 66.40625 20.328125 58.90625 
Q 16.5 51.421875 16.5 36.375 
Q 16.5 21.390625 20.328125 13.890625 
Q 24.171875 6.390625 31.78125 6.390625 
Q 39.453125 6.390625 43.28125 13.890625 
Q 47.125 21.390625 47.125 36.375 
Q 47.125 51.421875 43.28125 58.90625 
Q 39.453125 66.40625 31.78125 66.40625 
z
M 31.78125 74.21875 
Q 44.046875 74.21875 50.515625 64.515625 
Q 56.984375 54.828125 56.984375 36.375 
Q 56.984375 17.96875 50.515625 8.265625 
Q 44.046875 -1.421875 31.78125 -1.421875 
Q 19.53125 -1.421875 13.0625 8.265625 
Q 6.59375 17.96875 6.59375 36.375 
Q 6.59375 54.828125 13.0625 64.515625 
Q 19.53125 74.21875 31.78125 74.21875 
z
" id="DejaVuSans-48"/>
      </defs>
      <g transform="translate(70.651477 322.182437)scale(0.1 -0.1)">
       <use xlink:href="#DejaVuSans-48"/>
      </g>
     </g>
    </g>
    <g id="xtick_2">
     <g id="line2d_2">
      <g>
       <use style="stroke:#000000;stroke-width:0.8;" x="138.120756" xlink:href="#mccc958827e" y="307.584"/>
      </g>
     </g>
     <g id="text_2">
      <!-- 20 -->
      <defs>
       <path d="M 19.1875 8.296875 
L 53.609375 8.296875 
L 53.609375 0 
L 7.328125 0 
L 7.328125 8.296875 
Q 12.9375 14.109375 22.625 23.890625 
Q 32.328125 33.6875 34.8125 36.53125 
Q 39.546875 41.84375 41.421875 45.53125 
Q 43.3125 49.21875 43.3125 52.78125 
Q 43.3125 58.59375 39.234375 62.25 
Q 35.15625 65.921875 28.609375 65.921875 
Q 23.96875 65.921875 18.8125 64.3125 
Q 13.671875 62.703125 7.8125 59.421875 
L 7.8125 69.390625 
Q 13.765625 71.78125 18.9375 73 
Q 24.125 74.21875 28.421875 74.21875 
Q 39.75 74.21875 46.484375 68.546875 
Q 53.21875 62.890625 53.21875 53.421875 
Q 53.21875 48.921875 51.53125 44.890625 
Q 49.859375 40.875 45.40625 35.40625 
Q 44.1875 33.984375 37.640625 27.21875 
Q 31.109375 20.453125 19.1875 8.296875 
z
" id="DejaVuSans-50"/>
      </defs>
      <g transform="translate(131.758256 322.182437)scale(0.1 -0.1)">
       <use xlink:href="#DejaVuSans-50"/>
       <use x="63.623047" xlink:href="#DejaVuSans-48"/>
      </g>
     </g>
    </g>
    <g id="xtick_3">
     <g id="line2d_3">
      <g>
       <use style="stroke:#000000;stroke-width:0.8;" x="202.408785" xlink:href="#mccc958827e" y="307.584"/>
      </g>
     </g>
     <g id="text_3">
      <!-- 40 -->
      <defs>
       <path d="M 37.796875 64.3125 
L 12.890625 25.390625 
L 37.796875 25.390625 
z
M 35.203125 72.90625 
L 47.609375 72.90625 
L 47.609375 25.390625 
L 58.015625 25.390625 
L 58.015625 17.1875 
L 47.609375 17.1875 
L 47.609375 0 
L 37.796875 0 
L 37.796875 17.1875 
L 4.890625 17.1875 
L 4.890625 26.703125 
z
" id="DejaVuSans-52"/>
      </defs>
      <g transform="translate(196.046285 322.182437)scale(0.1 -0.1)">
       <use xlink:href="#DejaVuSans-52"/>
       <use x="63.623047" xlink:href="#DejaVuSans-48"/>
      </g>
     </g>
    </g>
    <g id="xtick_4">
     <g id="line2d_4">
      <g>
       <use style="stroke:#000000;stroke-width:0.8;" x="266.696814" xlink:href="#mccc958827e" y="307.584"/>
      </g>
     </g>
     <g id="text_4">
      <!-- 60 -->
      <defs>
       <path d="M 33.015625 40.375 
Q 26.375 40.375 22.484375 35.828125 
Q 18.609375 31.296875 18.609375 23.390625 
Q 18.609375 15.53125 22.484375 10.953125 
Q 26.375 6.390625 33.015625 6.390625 
Q 39.65625 6.390625 43.53125 10.953125 
Q 47.40625 15.53125 47.40625 23.390625 
Q 47.40625 31.296875 43.53125 35.828125 
Q 39.65625 40.375 33.015625 40.375 
z
M 52.59375 71.296875 
L 52.59375 62.3125 
Q 48.875 64.0625 45.09375 64.984375 
Q 41.3125 65.921875 37.59375 65.921875 
Q 27.828125 65.921875 22.671875 59.328125 
Q 17.53125 52.734375 16.796875 39.40625 
Q 19.671875 43.65625 24.015625 45.921875 
Q 28.375 48.1875 33.59375 48.1875 
Q 44.578125 48.1875 50.953125 41.515625 
Q 57.328125 34.859375 57.328125 23.390625 
Q 57.328125 12.15625 50.6875 5.359375 
Q 44.046875 -1.421875 33.015625 -1.421875 
Q 20.359375 -1.421875 13.671875 8.265625 
Q 6.984375 17.96875 6.984375 36.375 
Q 6.984375 53.65625 15.1875 63.9375 
Q 23.390625 74.21875 37.203125 74.21875 
Q 40.921875 74.21875 44.703125 73.484375 
Q 48.484375 72.75 52.59375 71.296875 
z
" id="DejaVuSans-54"/>
      </defs>
      <g transform="translate(260.334314 322.182437)scale(0.1 -0.1)">
       <use xlink:href="#DejaVuSans-54"/>
       <use x="63.623047" xlink:href="#DejaVuSans-48"/>
      </g>
     </g>
    </g>
    <g id="xtick_5">
     <g id="line2d_5">
      <g>
       <use style="stroke:#000000;stroke-width:0.8;" x="330.984842" xlink:href="#mccc958827e" y="307.584"/>
      </g>
     </g>
     <g id="text_5">
      <!-- 80 -->
      <defs>
       <path d="M 31.78125 34.625 
Q 24.75 34.625 20.71875 30.859375 
Q 16.703125 27.09375 16.703125 20.515625 
Q 16.703125 13.921875 20.71875 10.15625 
Q 24.75 6.390625 31.78125 6.390625 
Q 38.8125 6.390625 42.859375 10.171875 
Q 46.921875 13.96875 46.921875 20.515625 
Q 46.921875 27.09375 42.890625 30.859375 
Q 38.875 34.625 31.78125 34.625 
z
M 21.921875 38.8125 
Q 15.578125 40.375 12.03125 44.71875 
Q 8.5 49.078125 8.5 55.328125 
Q 8.5 64.0625 14.71875 69.140625 
Q 20.953125 74.21875 31.78125 74.21875 
Q 42.671875 74.21875 48.875 69.140625 
Q 55.078125 64.0625 55.078125 55.328125 
Q 55.078125 49.078125 51.53125 44.71875 
Q 48 40.375 41.703125 38.8125 
Q 48.828125 37.15625 52.796875 32.3125 
Q 56.78125 27.484375 56.78125 20.515625 
Q 56.78125 9.90625 50.3125 4.234375 
Q 43.84375 -1.421875 31.78125 -1.421875 
Q 19.734375 -1.421875 13.25 4.234375 
Q 6.78125 9.90625 6.78125 20.515625 
Q 6.78125 27.484375 10.78125 32.3125 
Q 14.796875 37.15625 21.921875 38.8125 
z
M 18.3125 54.390625 
Q 18.3125 48.734375 21.84375 45.5625 
Q 25.390625 42.390625 31.78125 42.390625 
Q 38.140625 42.390625 41.71875 45.5625 
Q 45.3125 48.734375 45.3125 54.390625 
Q 45.3125 60.0625 41.71875 63.234375 
Q 38.140625 66.40625 31.78125 66.40625 
Q 25.390625 66.40625 21.84375 63.234375 
Q 18.3125 60.0625 18.3125 54.390625 
z
" id="DejaVuSans-56"/>
      </defs>
      <g transform="translate(324.622342 322.182437)scale(0.1 -0.1)">
       <use xlink:href="#DejaVuSans-56"/>
       <use x="63.623047" xlink:href="#DejaVuSans-48"/>
      </g>
     </g>
    </g>
    <g id="xtick_6">
     <g id="line2d_6">
      <g>
       <use style="stroke:#000000;stroke-width:0.8;" x="395.272871" xlink:href="#mccc958827e" y="307.584"/>
      </g>
     </g>
     <g id="text_6">
      <!-- 100 -->
      <defs>
       <path d="M 12.40625 8.296875 
L 28.515625 8.296875 
L 28.515625 63.921875 
L 10.984375 60.40625 
L 10.984375 69.390625 
L 28.421875 72.90625 
L 38.28125 72.90625 
L 38.28125 8.296875 
L 54.390625 8.296875 
L 54.390625 0 
L 12.40625 0 
z
" id="DejaVuSans-49"/>
      </defs>
      <g transform="translate(385.729121 322.182437)scale(0.1 -0.1)">
       <use xlink:href="#DejaVuSans-49"/>
       <use x="63.623047" xlink:href="#DejaVuSans-48"/>
       <use x="127.246094" xlink:href="#DejaVuSans-48"/>
      </g>
     </g>
    </g>
    <g id="text_7">
     <!-- aa position -->
     <defs>
      <path d="M 34.28125 27.484375 
Q 23.390625 27.484375 19.1875 25 
Q 14.984375 22.515625 14.984375 16.5 
Q 14.984375 11.71875 18.140625 8.90625 
Q 21.296875 6.109375 26.703125 6.109375 
Q 34.1875 6.109375 38.703125 11.40625 
Q 43.21875 16.703125 43.21875 25.484375 
L 43.21875 27.484375 
z
M 52.203125 31.203125 
L 52.203125 0 
L 43.21875 0 
L 43.21875 8.296875 
Q 40.140625 3.328125 35.546875 0.953125 
Q 30.953125 -1.421875 24.3125 -1.421875 
Q 15.921875 -1.421875 10.953125 3.296875 
Q 6 8.015625 6 15.921875 
Q 6 25.140625 12.171875 29.828125 
Q 18.359375 34.515625 30.609375 34.515625 
L 43.21875 34.515625 
L 43.21875 35.40625 
Q 43.21875 41.609375 39.140625 45 
Q 35.0625 48.390625 27.6875 48.390625 
Q 23 48.390625 18.546875 47.265625 
Q 14.109375 46.140625 10.015625 43.890625 
L 10.015625 52.203125 
Q 14.9375 54.109375 19.578125 55.046875 
Q 24.21875 56 28.609375 56 
Q 40.484375 56 46.34375 49.84375 
Q 52.203125 43.703125 52.203125 31.203125 
z
" id="DejaVuSans-97"/>
      <path id="DejaVuSans-32"/>
      <path d="M 18.109375 8.203125 
L 18.109375 -20.796875 
L 9.078125 -20.796875 
L 9.078125 54.6875 
L 18.109375 54.6875 
L 18.109375 46.390625 
Q 20.953125 51.265625 25.265625 53.625 
Q 29.59375 56 35.59375 56 
Q 45.5625 56 51.78125 48.09375 
Q 58.015625 40.1875 58.015625 27.296875 
Q 58.015625 14.40625 51.78125 6.484375 
Q 45.5625 -1.421875 35.59375 -1.421875 
Q 29.59375 -1.421875 25.265625 0.953125 
Q 20.953125 3.328125 18.109375 8.203125 
z
M 48.6875 27.296875 
Q 48.6875 37.203125 44.609375 42.84375 
Q 40.53125 48.484375 33.40625 48.484375 
Q 26.265625 48.484375 22.1875 42.84375 
Q 18.109375 37.203125 18.109375 27.296875 
Q 18.109375 17.390625 22.1875 11.75 
Q 26.265625 6.109375 33.40625 6.109375 
Q 40.53125 6.109375 44.609375 11.75 
Q 48.6875 17.390625 48.6875 27.296875 
z
" id="DejaVuSans-112"/>
      <path d="M 30.609375 48.390625 
Q 23.390625 48.390625 19.1875 42.75 
Q 14.984375 37.109375 14.984375 27.296875 
Q 14.984375 17.484375 19.15625 11.84375 
Q 23.34375 6.203125 30.609375 6.203125 
Q 37.796875 6.203125 41.984375 11.859375 
Q 46.1875 17.53125 46.1875 27.296875 
Q 46.1875 37.015625 41.984375 42.703125 
Q 37.796875 48.390625 30.609375 48.390625 
z
M 30.609375 56 
Q 42.328125 56 49.015625 48.375 
Q 55.71875 40.765625 55.71875 27.296875 
Q 55.71875 13.875 49.015625 6.21875 
Q 42.328125 -1.421875 30.609375 -1.421875 
Q 18.84375 -1.421875 12.171875 6.21875 
Q 5.515625 13.875 5.515625 27.296875 
Q 5.515625 40.765625 12.171875 48.375 
Q 18.84375 56 30.609375 56 
z
" id="DejaVuSans-111"/>
      <path d="M 44.28125 53.078125 
L 44.28125 44.578125 
Q 40.484375 46.53125 36.375 47.5 
Q 32.28125 48.484375 27.875 48.484375 
Q 21.1875 48.484375 17.84375 46.4375 
Q 14.5 44.390625 14.5 40.28125 
Q 14.5 37.15625 16.890625 35.375 
Q 19.28125 33.59375 26.515625 31.984375 
L 29.59375 31.296875 
Q 39.15625 29.25 43.1875 25.515625 
Q 47.21875 21.78125 47.21875 15.09375 
Q 47.21875 7.46875 41.1875 3.015625 
Q 35.15625 -1.421875 24.609375 -1.421875 
Q 20.21875 -1.421875 15.453125 -0.5625 
Q 10.6875 0.296875 5.421875 2 
L 5.421875 11.28125 
Q 10.40625 8.6875 15.234375 7.390625 
Q 20.0625 6.109375 24.8125 6.109375 
Q 31.15625 6.109375 34.5625 8.28125 
Q 37.984375 10.453125 37.984375 14.40625 
Q 37.984375 18.0625 35.515625 20.015625 
Q 33.0625 21.96875 24.703125 23.78125 
L 21.578125 24.515625 
Q 13.234375 26.265625 9.515625 29.90625 
Q 5.8125 33.546875 5.8125 39.890625 
Q 5.8125 47.609375 11.28125 51.796875 
Q 16.75 56 26.8125 56 
Q 31.78125 56 36.171875 55.265625 
Q 40.578125 54.546875 44.28125 53.078125 
z
" id="DejaVuSans-115"/>
      <path d="M 9.421875 54.6875 
L 18.40625 54.6875 
L 18.40625 0 
L 9.421875 0 
z
M 9.421875 75.984375 
L 18.40625 75.984375 
L 18.40625 64.59375 
L 9.421875 64.59375 
z
" id="DejaVuSans-105"/>
      <path d="M 18.3125 70.21875 
L 18.3125 54.6875 
L 36.8125 54.6875 
L 36.8125 47.703125 
L 18.3125 47.703125 
L 18.3125 18.015625 
Q 18.3125 11.328125 20.140625 9.421875 
Q 21.96875 7.515625 27.59375 7.515625 
L 36.8125 7.515625 
L 36.8125 0 
L 27.59375 0 
Q 17.1875 0 13.234375 3.875 
Q 9.28125 7.765625 9.28125 18.015625 
L 9.28125 47.703125 
L 2.6875 47.703125 
L 2.6875 54.6875 
L 9.28125 54.6875 
L 9.28125 70.21875 
z
" id="DejaVuSans-116"/>
      <path d="M 54.890625 33.015625 
L 54.890625 0 
L 45.90625 0 
L 45.90625 32.71875 
Q 45.90625 40.484375 42.875 44.328125 
Q 39.84375 48.1875 33.796875 48.1875 
Q 26.515625 48.1875 22.3125 43.546875 
Q 18.109375 38.921875 18.109375 30.90625 
L 18.109375 0 
L 9.078125 0 
L 9.078125 54.6875 
L 18.109375 54.6875 
L 18.109375 46.1875 
Q 21.34375 51.125 25.703125 53.5625 
Q 30.078125 56 35.796875 56 
Q 45.21875 56 50.046875 50.171875 
Q 54.890625 44.34375 54.890625 33.015625 
z
" id="DejaVuSans-110"/>
     </defs>
     <g transform="translate(208.638125 335.860562)scale(0.1 -0.1)">
      <use xlink:href="#DejaVuSans-97"/>
      <use x="61.279297" xlink:href="#DejaVuSans-97"/>
      <use x="122.558594" xlink:href="#DejaVuSans-32"/>
      <use x="154.345703" xlink:href="#DejaVuSans-112"/>
      <use x="217.822266" xlink:href="#DejaVuSans-111"/>
      <use x="279.003906" xlink:href="#DejaVuSans-115"/>
      <use x="331.103516" xlink:href="#DejaVuSans-105"/>
      <use x="358.886719" xlink:href="#DejaVuSans-116"/>
      <use x="398.095703" xlink:href="#DejaVuSans-105"/>
      <use x="425.878906" xlink:href="#DejaVuSans-111"/>
      <use x="487.060547" xlink:href="#DejaVuSans-110"/>
     </g>
    </g>
   </g>
   <g id="matplotlib.axis_2">
    <g id="ytick_1">
     <g id="line2d_7">
      <defs>
       <path d="M 0 0 
L -3.5 0 
" id="md10b96f259" style="stroke:#000000;stroke-width:0.8;"/>
      </defs>
      <g>
       <use style="stroke:#000000;stroke-width:0.8;" x="57.6" xlink:href="#md10b96f259" y="295.488"/>
      </g>
     </g>
     <g id="text_8">
      <!-- 0.0 -->
      <defs>
       <path d="M 10.6875 12.40625 
L 21 12.40625 
L 21 0 
L 10.6875 0 
z
" id="DejaVuSans-46"/>
      </defs>
      <g transform="translate(34.696875 299.287219)scale(0.1 -0.1)">
       <use xlink:href="#DejaVuSans-48"/>
       <use x="63.623047" xlink:href="#DejaVuSans-46"/>
       <use x="95.410156" xlink:href="#DejaVuSans-48"/>
      </g>
     </g>
    </g>
    <g id="ytick_2">
     <g id="line2d_8">
      <g>
       <use style="stroke:#000000;stroke-width:0.8;" x="57.6" xlink:href="#md10b96f259" y="263.509889"/>
      </g>
     </g>
     <g id="text_9">
      <!-- 0.2 -->
      <g transform="translate(34.696875 267.309108)scale(0.1 -0.1)">
       <use xlink:href="#DejaVuSans-48"/>
       <use x="63.623047" xlink:href="#DejaVuSans-46"/>
       <use x="95.410156" xlink:href="#DejaVuSans-50"/>
      </g>
     </g>
    </g>
    <g id="ytick_3">
     <g id="line2d_9">
      <g>
       <use style="stroke:#000000;stroke-width:0.8;" x="57.6" xlink:href="#md10b96f259" y="231.531778"/>
      </g>
     </g>
     <g id="text_10">
      <!-- 0.4 -->
      <g transform="translate(34.696875 235.330997)scale(0.1 -0.1)">
       <use xlink:href="#DejaVuSans-48"/>
       <use x="63.623047" xlink:href="#DejaVuSans-46"/>
       <use x="95.410156" xlink:href="#DejaVuSans-52"/>
      </g>
     </g>
    </g>
    <g id="ytick_4">
     <g id="line2d_10">
      <g>
       <use style="stroke:#000000;stroke-width:0.8;" x="57.6" xlink:href="#md10b96f259" y="199.553668"/>
      </g>
     </g>
     <g id="text_11">
      <!-- 0.6 -->
      <g transform="translate(34.696875 203.352886)scale(0.1 -0.1)">
       <use xlink:href="#DejaVuSans-48"/>
       <use x="63.623047" xlink:href="#DejaVuSans-46"/>
       <use x="95.410156" xlink:href="#DejaVuSans-54"/>
      </g>
     </g>
    </g>
    <g id="ytick_5">
     <g id="line2d_11">
      <g>
       <use style="stroke:#000000;stroke-width:0.8;" x="57.6" xlink:href="#md10b96f259" y="167.575557"/>
      </g>
     </g>
     <g id="text_12">
      <!-- 0.8 -->
      <g transform="translate(34.696875 171.374776)scale(0.1 -0.1)">
       <use xlink:href="#DejaVuSans-48"/>
       <use x="63.623047" xlink:href="#DejaVuSans-46"/>
       <use x="95.410156" xlink:href="#DejaVuSans-56"/>
      </g>
     </g>
    </g>
    <g id="ytick_6">
     <g id="line2d_12">
      <g>
       <use style="stroke:#000000;stroke-width:0.8;" x="57.6" xlink:href="#md10b96f259" y="135.597446"/>
      </g>
     </g>
     <g id="text_13">
      <!-- 1.0 -->
      <g transform="translate(34.696875 139.396665)scale(0.1 -0.1)">
       <use xlink:href="#DejaVuSans-49"/>
       <use x="63.623047" xlink:href="#DejaVuSans-46"/>
       <use x="95.410156" xlink:href="#DejaVuSans-48"/>
      </g>
     </g>
    </g>
    <g id="ytick_7">
     <g id="line2d_13">
      <g>
       <use style="stroke:#000000;stroke-width:0.8;" x="57.6" xlink:href="#md10b96f259" y="103.619335"/>
      </g>
     </g>
     <g id="text_14">
      <!-- 1.2 -->
      <g transform="translate(34.696875 107.418554)scale(0.1 -0.1)">
       <use xlink:href="#DejaVuSans-49"/>
       <use x="63.623047" xlink:href="#DejaVuSans-46"/>
       <use x="95.410156" xlink:href="#DejaVuSans-50"/>
      </g>
     </g>
    </g>
    <g id="ytick_8">
     <g id="line2d_14">
      <g>
       <use style="stroke:#000000;stroke-width:0.8;" x="57.6" xlink:href="#md10b96f259" y="71.641225"/>
      </g>
     </g>
     <g id="text_15">
      <!-- 1.4 -->
      <g transform="translate(34.696875 75.440443)scale(0.1 -0.1)">
       <use xlink:href="#DejaVuSans-49"/>
       <use x="63.623047" xlink:href="#DejaVuSans-46"/>
       <use x="95.410156" xlink:href="#DejaVuSans-52"/>
      </g>
     </g>
    </g>
    <g id="text_16">
     <!-- Ka/Ks (11 aa window) -->
     <defs>
      <path d="M 9.8125 72.90625 
L 19.671875 72.90625 
L 19.671875 42.09375 
L 52.390625 72.90625 
L 65.09375 72.90625 
L 28.90625 38.921875 
L 67.671875 0 
L 54.6875 0 
L 19.671875 35.109375 
L 19.671875 0 
L 9.8125 0 
z
" id="DejaVuSans-75"/>
      <path d="M 25.390625 72.90625 
L 33.6875 72.90625 
L 8.296875 -9.28125 
L 0 -9.28125 
z
" id="DejaVuSans-47"/>
      <path d="M 31 75.875 
Q 24.46875 64.65625 21.28125 53.65625 
Q 18.109375 42.671875 18.109375 31.390625 
Q 18.109375 20.125 21.3125 9.0625 
Q 24.515625 -2 31 -13.1875 
L 23.1875 -13.1875 
Q 15.875 -1.703125 12.234375 9.375 
Q 8.59375 20.453125 8.59375 31.390625 
Q 8.59375 42.28125 12.203125 53.3125 
Q 15.828125 64.359375 23.1875 75.875 
z
" id="DejaVuSans-40"/>
      <path d="M 4.203125 54.6875 
L 13.1875 54.6875 
L 24.421875 12.015625 
L 35.59375 54.6875 
L 46.1875 54.6875 
L 57.421875 12.015625 
L 68.609375 54.6875 
L 77.59375 54.6875 
L 63.28125 0 
L 52.6875 0 
L 40.921875 44.828125 
L 29.109375 0 
L 18.5 0 
z
" id="DejaVuSans-119"/>
      <path d="M 45.40625 46.390625 
L 45.40625 75.984375 
L 54.390625 75.984375 
L 54.390625 0 
L 45.40625 0 
L 45.40625 8.203125 
Q 42.578125 3.328125 38.25 0.953125 
Q 33.9375 -1.421875 27.875 -1.421875 
Q 17.96875 -1.421875 11.734375 6.484375 
Q 5.515625 14.40625 5.515625 27.296875 
Q 5.515625 40.1875 11.734375 48.09375 
Q 17.96875 56 27.875 56 
Q 33.9375 56 38.25 53.625 
Q 42.578125 51.265625 45.40625 46.390625 
z
M 14.796875 27.296875 
Q 14.796875 17.390625 18.875 11.75 
Q 22.953125 6.109375 30.078125 6.109375 
Q 37.203125 6.109375 41.296875 11.75 
Q 45.40625 17.390625 45.40625 27.296875 
Q 45.40625 37.203125 41.296875 42.84375 
Q 37.203125 48.484375 30.078125 48.484375 
Q 22.953125 48.484375 18.875 42.84375 
Q 14.796875 37.203125 14.796875 27.296875 
z
" id="DejaVuSans-100"/>
      <path d="M 8.015625 75.875 
L 15.828125 75.875 
Q 23.140625 64.359375 26.78125 53.3125 
Q 30.421875 42.28125 30.421875 31.390625 
Q 30.421875 20.453125 26.78125 9.375 
Q 23.140625 -1.703125 15.828125 -13.1875 
L 8.015625 -13.1875 
Q 14.5 -2 17.703125 9.0625 
Q 20.90625 20.125 20.90625 31.390625 
Q 20.90625 42.671875 17.703125 53.65625 
Q 14.5 64.65625 8.015625 75.875 
z
" id="DejaVuSans-41"/>
     </defs>
     <g transform="translate(28.617187 228.480344)rotate(-90)scale(0.1 -0.1)">
      <use xlink:href="#DejaVuSans-75"/>
      <use x="63.826172" xlink:href="#DejaVuSans-97"/>
      <use x="125.105469" xlink:href="#DejaVuSans-47"/>
      <use x="158.796875" xlink:href="#DejaVuSans-75"/>
      <use x="224.373047" xlink:href="#DejaVuSans-115"/>
      <use x="276.472656" xlink:href="#DejaVuSans-32"/>
      <use x="308.259766" xlink:href="#DejaVuSans-40"/>
      <use x="347.273438" xlink:href="#DejaVuSans-49"/>
      <use x="410.896484" xlink:href="#DejaVuSans-49"/>
      <use x="474.519531" xlink:href="#DejaVuSans-32"/>
      <use x="506.306641" xlink:href="#DejaVuSans-97"/>
      <use x="567.585938" xlink:href="#DejaVuSans-97"/>
      <use x="628.865234" xlink:href="#DejaVuSans-32"/>
      <use x="660.652344" xlink:href="#DejaVuSans-119"/>
      <use x="742.439453" xlink:href="#DejaVuSans-105"/>
      <use x="770.222656" xlink:href="#DejaVuSans-110"/>
      <use x="833.601562" xlink:href="#DejaVuSans-100"/>
      <use x="897.078125" xlink:href="#DejaVuSans-111"/>
      <use x="958.259766" xlink:href="#DejaVuSans-119"/>
      <use x="1040.046875" xlink:href="#DejaVuSans-41"/>
     </g>
    </g>
   </g>
   <g id="line2d_15">
    <path clip-path="url(#p7a3fc241de)" d="M 73.832727 230.659327 
L 77.047129 239.920566 
L 80.26153 221.499244 
L 83.475932 228.656534 
L 86.690333 235.339681 
L 89.904734 237.045161 
L 93.119136 234.119148 
L 96.333537 252.523494 
L 99.547939 253.998902 
L 102.76234 250.616014 
L 105.976742 253.883888 
L 109.191143 256.149993 
L 112.405545 253.873992 
L 115.619946 270.836317 
L 118.834347 271.706603 
L 122.048749 261.610513 
L 125.26315 262.361567 
L 128.477552 271.943897 
L 131.691953 271.537905 
L 134.906355 271.537905 
L 138.120756 273.011424 
L 141.335158 273.011424 
L 144.549559 276.546759 
L 147.76396 279.328538 
L 150.978362 281.145476 
L 154.192763 281.145476 
L 157.407165 293.234784 
L 160.621566 292.621352 
L 163.835968 292.621352 
L 167.050369 293.221884 
L 170.26477 290.414843 
L 173.479172 290.922159 
L 176.693573 288.446242 
L 179.907975 288.446242 
L 183.122376 288.446242 
L 186.336778 288.446242 
L 189.551179 288.446242 
L 192.765581 287.604521 
L 195.979982 281.658469 
L 199.194383 279.958554 
L 202.408785 281.105912 
L 205.623186 283.402582 
L 208.837588 279.112835 
L 212.051989 281.363669 
L 215.266391 281.363669 
L 218.480792 281.363669 
L 221.695194 279.133119 
L 224.909595 279.133119 
L 228.123996 280.615 
L 231.338398 282.752578 
L 234.552799 284.452493 
L 237.767201 284.452493 
L 240.981602 284.452493 
L 244.196004 288.742239 
L 247.410405 283.873203 
L 250.624806 281.807088 
L 253.839208 279.629829 
L 257.053609 266.741788 
L 260.268011 263.867166 
L 263.482412 263.867166 
L 266.696814 265.872331 
L 269.911215 265.872331 
L 273.125617 262.170373 
L 276.340018 257.410711 
L 279.554419 257.410711 
L 282.768821 259.991063 
L 285.983222 261.136655 
L 289.197624 255.487713 
L 292.412025 275.058175 
L 295.626427 264.444568 
L 298.840828 256.736066 
L 302.05523 258.063071 
L 305.269631 233.486398 
L 308.484032 240.375465 
L 311.698434 244.716787 
L 314.912835 243.169459 
L 318.127237 237.934295 
L 321.341638 233.764296 
L 324.55604 233.333163 
L 327.770441 238.764466 
L 330.984842 243.514658 
L 334.199244 244.560174 
L 337.413645 238.609957 
L 340.628047 263.18663 
L 343.842448 218.417275 
L 347.05685 185.530906 
L 350.271251 172.033219 
L 353.485653 169.77498 
L 356.700054 169.77498 
L 359.914455 169.77498 
L 363.128857 113.98583 
L 366.343258 113.98583 
L 369.55766 86.804474 
L 372.772061 53.568 
L 375.986463 53.568 
L 379.200864 128.993034 
L 382.415266 176.677792 
L 385.629667 176.677792 
L 388.844068 176.677792 
L 392.05847 176.677792 
L 395.272871 176.677792 
L 398.487273 248.652689 
" style="fill:none;stroke:#1f77b4;stroke-linecap:square;"/>
   </g>
   <g id="line2d_16">
    <path clip-path="url(#p7a3fc241de)" d="M 73.832727 228.505711 
L 77.047129 235.859959 
L 80.26153 245.797965 
L 83.475932 234.652372 
L 86.690333 235.71525 
L 89.904734 242.356667 
L 93.119136 243.74221 
L 96.333537 260.364856 
L 99.547939 264.267427 
L 102.76234 267.389484 
L 105.976742 263.228033 
L 109.191143 267.139605 
L 112.405545 268.310737 
L 115.619946 264.188123 
L 118.834347 261.285264 
L 122.048749 265.33939 
L 125.26315 264.616526 
L 128.477552 265.490558 
L 131.691953 266.766657 
L 134.906355 263.125632 
L 138.120756 258.788425 
L 141.335158 256.32213 
L 144.549559 254.593091 
L 147.76396 254.665039 
L 150.978362 256.415625 
L 154.192763 270.664514 
L 157.407165 264.533539 
L 160.621566 264.768995 
L 163.835968 258.075758 
L 167.050369 255.113362 
L 170.26477 257.632045 
L 173.479172 250.561938 
L 176.693573 256.462911 
L 179.907975 257.004354 
L 183.122376 258.6142 
L 186.336778 259.649536 
L 189.551179 259.649536 
L 192.765581 265.930005 
L 195.979982 256.36377 
L 199.194383 264.989473 
L 202.408785 223.131711 
L 205.623186 224.254053 
L 208.837588 235.661367 
L 212.051989 235.243699 
L 215.266391 236.431295 
L 218.480792 230.525625 
L 221.695194 231.583724 
L 224.909595 230.477066 
L 228.123996 231.491756 
L 231.338398 242.16957 
L 234.552799 234.814955 
L 237.767201 281.438605 
L 240.981602 279.349414 
L 244.196004 279.349414 
L 247.410405 272.249974 
L 250.624806 270.801301 
L 253.839208 262.924975 
L 257.053609 260.674897 
L 260.268011 256.382801 
L 263.482412 252.472281 
L 266.696814 252.781189 
L 269.911215 231.799645 
L 273.125617 235.536732 
L 276.340018 231.196804 
L 279.554419 231.196804 
L 282.768821 232.855646 
L 285.983222 224.084704 
L 289.197624 229.075078 
L 292.412025 229.798859 
L 295.626427 228.28565 
L 298.840828 214.851852 
L 302.05523 213.765259 
L 305.269631 216.51 
L 308.484032 208.585562 
L 311.698434 204.198389 
L 314.912835 198.459515 
L 318.127237 198.101398 
L 321.341638 206.437233 
L 324.55604 204.472658 
L 327.770441 206.19635 
L 330.984842 202.942888 
L 334.199244 217.001727 
L 337.413645 217.890757 
L 340.628047 235.093736 
L 343.842448 240.884042 
L 347.05685 252.556871 
L 350.271251 254.905957 
L 353.485653 249.91629 
L 356.700054 250.831458 
L 359.914455 252.787572 
L 363.128857 248.517529 
L 366.343258 258.012828 
L 369.55766 256.422333 
L 372.772061 248.086953 
L 375.986463 204.64964 
L 379.200864 198.081072 
L 382.415266 187.521751 
L 385.629667 177.969569 
L 388.844068 179.746021 
L 392.05847 160.455691 
L 395.272871 151.277999 
" style="fill:none;stroke:#ff7f0e;stroke-dasharray:4,1.5;stroke-dashoffset:0;"/>
   </g>
   <g id="line2d_17">
    <path clip-path="url(#p7a3fc241de)" d="M 73.832727 212.549411 
L 77.047129 219.305506 
L 80.26153 219.305506 
L 83.475932 220.918058 
L 86.690333 229.743159 
L 89.904734 237.961264 
L 93.119136 239.257018 
L 96.333537 243.336897 
L 99.547939 270.08125 
L 102.76234 269.662248 
L 105.976742 256.445862 
L 109.191143 259.016697 
L 112.405545 264.47871 
L 115.619946 267.435117 
L 118.834347 273.495549 
L 122.048749 272.473525 
L 125.26315 267.905223 
L 128.477552 268.859002 
L 131.691953 271.02701 
L 134.906355 269.984165 
L 138.120756 269.748734 
L 141.335158 282.903506 
L 144.549559 272.951722 
L 147.76396 272.951722 
L 150.978362 259.327891 
L 154.192763 259.12388 
L 157.407165 258.860911 
L 160.621566 259.847633 
L 163.835968 256.280376 
L 167.050369 252.359614 
L 170.26477 248.610416 
L 173.479172 250.708451 
L 176.693573 250.689963 
L 179.907975 259.603074 
L 183.122376 257.689543 
L 186.336778 272.987714 
L 189.551179 270.350663 
L 192.765581 274.712527 
L 195.979982 278.074835 
L 199.194383 281.945259 
L 202.408785 281.948077 
L 205.623186 280.135292 
L 208.837588 281.301957 
L 212.051989 282.568986 
L 215.266391 282.148181 
L 218.480792 283.713797 
L 221.695194 283.713797 
L 224.909595 286.593472 
L 228.123996 283.34276 
L 231.338398 283.34276 
L 234.552799 284.465742 
L 237.767201 281.892984 
L 240.981602 281.062783 
L 244.196004 280.08702 
L 247.410405 280.08702 
L 250.624806 279.116022 
L 253.839208 279.116022 
L 257.053609 272.601456 
L 260.268011 267.337645 
L 263.482412 268.91384 
L 266.696814 264.059372 
L 269.911215 248.467481 
L 273.125617 248.969997 
L 276.340018 238.788453 
L 279.554419 234.191837 
L 282.768821 227.381152 
L 285.983222 231.433077 
L 289.197624 229.907916 
L 292.412025 233.247814 
L 295.626427 235.375109 
L 298.840828 230.163459 
L 302.05523 234.171186 
L 305.269631 253.717779 
L 308.484032 256.927418 
L 311.698434 256.083114 
L 314.912835 256.570902 
L 318.127237 253.385489 
L 321.341638 254.458173 
L 324.55604 252.773957 
L 327.770441 254.966462 
L 330.984842 254.77032 
L 334.199244 256.12759 
L 337.413645 255.322623 
L 340.628047 248.815404 
L 343.842448 249.876414 
L 347.05685 266.012834 
L 350.271251 266.716635 
L 353.485653 271.994555 
L 356.700054 271.994555 
L 359.914455 262.667735 
L 363.128857 261.207274 
L 366.343258 264.635346 
L 369.55766 265.624407 
L 372.772061 264.933159 
L 375.986463 265.961708 
L 379.200864 258.902025 
L 382.415266 254.836916 
L 385.629667 253.252628 
L 388.844068 249.789295 
L 392.05847 242.172844 
L 395.272871 256.277173 
" style="fill:none;stroke:#2ca02c;stroke-dasharray:1,1;stroke-dashoffset:0;"/>
   </g>
   <g id="line2d_18">
    <path clip-path="url(#p7a3fc241de)" d="M 73.832727 254.617466 
L 77.047129 254.617466 
L 80.26153 261.429222 
L 83.475932 266.294762 
L 86.690333 264.474847 
L 89.904734 267.920753 
L 93.119136 265.21128 
L 96.333537 279.876081 
L 99.547939 282.443351 
L 102.76234 288.478608 
L 105.976742 288.478608 
L 109.191143 288.478608 
L 112.405545 284.442975 
L 115.619946 284.442975 
L 118.834347 284.442975 
L 122.048749 289.30437 
L 125.26315 289.30437 
L 128.477552 289.922733 
L 131.691953 279.83966 
L 134.906355 278.100955 
L 138.120756 278.100955 
L 141.335158 278.100955 
L 144.549559 279.83966 
L 147.76396 284.172669 
L 150.978362 270.086628 
L 154.192763 270.086628 
L 157.407165 268.67378 
L 160.621566 267.677025 
L 163.835968 267.677025 
L 167.050369 277.159507 
L 170.26477 277.159507 
L 173.479172 274.868445 
L 176.693573 274.868445 
L 179.907975 274.868445 
L 183.122376 274.868445 
L 186.336778 292.475996 
L 189.551179 292.475996 
L 192.765581 294.242055 
L 195.979982 295.488 
L 199.194383 295.488 
L 202.408785 295.488 
L 205.623186 295.488 
L 208.837588 295.488 
L 212.051989 295.488 
L 215.266391 295.488 
L 218.480792 295.488 
L 221.695194 295.488 
L 224.909595 295.488 
L 228.123996 295.488 
L 231.338398 295.488 
L 234.552799 295.488 
L 237.767201 285.517682 
L 240.981602 284.633134 
L 244.196004 284.633134 
L 247.410405 283.590258 
L 250.624806 283.590258 
L 253.839208 282.400484 
L 257.053609 282.400484 
L 260.268011 279.235768 
L 263.482412 274.610998 
L 266.696814 272.291331 
L 269.911215 269.391748 
L 273.125617 281.854645 
L 276.340018 284.317188 
L 279.554419 282.721358 
L 282.768821 284.360163 
L 285.983222 284.360163 
L 289.197624 285.751142 
L 292.412025 285.751142 
L 295.626427 287.690814 
L 298.840828 293.471777 
L 302.05523 293.695802 
L 305.269631 293.875021 
L 308.484032 293.875021 
L 311.698434 293.695802 
L 314.912835 293.875021 
L 318.127237 293.875021 
L 321.341638 293.875021 
L 324.55604 293.875021 
L 327.770441 286.643159 
L 330.984842 288.256138 
L 334.199244 277.525941 
L 337.413645 277.525941 
L 340.628047 277.525941 
L 343.842448 276.328093 
L 347.05685 278.069903 
L 350.271251 278.069903 
L 353.485653 278.069903 
L 356.700054 278.069903 
L 359.914455 278.069903 
L 363.128857 284.644323 
L 366.343258 284.644323 
L 369.55766 294.290152 
L 372.772061 294.290152 
L 375.986463 294.290152 
L 379.200864 295.488 
L 382.415266 295.488 
L 385.629667 295.488 
L 388.844068 295.488 
L 392.05847 295.488 
L 395.272871 295.488 
L 398.487273 295.488 
" style="fill:none;stroke:#d62728;stroke-dasharray:3,1,1.5,1;stroke-dashoffset:0;"/>
   </g>
   <g id="line2d_19">
    <path clip-path="url(#p7a3fc241de)" d="M 73.832727 279.91376 
L 77.047129 280.792982 
L 80.26153 282.89227 
L 83.475932 284.466736 
L 86.690333 285.691321 
L 89.904734 286.670989 
L 93.119136 285.691321 
L 96.333537 290.023799 
L 99.547939 290.735069 
L 102.76234 293.030321 
L 105.976742 293.030321 
L 109.191143 293.276089 
L 112.405545 273.048855 
L 115.619946 273.048855 
L 118.834347 273.048855 
L 122.048749 273.048855 
L 125.26315 273.048855 
L 128.477552 275.088777 
L 131.691953 272.413457 
L 134.906355 269.818255 
L 138.120756 269.818255 
L 141.335158 269.818255 
L 144.549559 268.642763 
L 147.76396 287.967422 
L 150.978362 282.99475 
L 154.192763 282.99475 
L 157.407165 276.974719 
L 160.621566 269.170893 
L 163.835968 269.170893 
L 167.050369 270.940433 
L 170.26477 272.124258 
L 173.479172 272.124258 
L 176.693573 272.124258 
L 179.907975 273.29975 
L 183.122376 273.29975 
L 186.336778 278.272423 
L 189.551179 278.272423 
L 192.765581 284.292453 
L 195.979982 291.267232 
L 199.194383 291.267232 
L 202.408785 289.956024 
L 205.623186 291.916405 
L 208.837588 291.916405 
L 212.051989 291.916405 
L 215.266391 291.916405 
L 218.480792 291.916405 
L 221.695194 291.916405 
L 224.909595 291.916405 
L 228.123996 291.352449 
L 231.338398 292.181496 
L 234.552799 291.599411 
L 237.767201 289.014095 
L 240.981602 273.488856 
L 244.196004 273.488856 
L 247.410405 271.690935 
L 250.624806 271.690935 
L 253.839208 271.690935 
L 257.053609 270.485551 
L 260.268011 267.435175 
L 263.482412 267.313956 
L 266.696814 267.313956 
L 269.911215 263.937543 
L 273.125617 269.265406 
L 276.340018 284.790645 
L 279.554419 283.72091 
L 282.768821 285.698624 
L 285.983222 284.610915 
L 289.197624 282.813557 
L 292.412025 284.286804 
L 295.626427 284.850074 
L 298.840828 285.687511 
L 302.05523 285.687511 
L 305.269631 287.212945 
L 308.484032 287.212945 
L 311.698434 270.401186 
L 314.912835 271.07568 
L 318.127237 271.07568 
L 321.341638 272.539236 
L 324.55604 267.039764 
L 327.770441 264.420179 
L 330.984842 261.688664 
L 334.199244 259.017374 
L 337.413645 259.017374 
L 340.628047 255.071344 
L 343.842448 255.071344 
L 347.05685 268.826419 
L 350.271251 270.493862 
L 353.485653 270.493862 
L 356.700054 269.878333 
L 359.914455 276.848371 
L 363.128857 278.283909 
L 366.343258 283.604942 
L 369.55766 279.532058 
L 372.772061 272.504066 
L 375.986463 277.485399 
L 379.200864 269.739988 
L 382.415266 266.499388 
L 385.629667 263.600527 
L 388.844068 260.057475 
L 392.05847 257.514161 
L 395.272871 252.089327 
L 398.487273 247.026968 
" style="fill:none;stroke:#9467bd;stroke-dasharray:5,1,1,1;stroke-dashoffset:0;"/>
   </g>
   <g id="line2d_20"/>
   <g id="line2d_21"/>
   <g id="line2d_22"/>
   <g id="line2d_23"/>
   <g id="line2d_24"/>
   <g id="patch_3">
    <path d="M 57.6 307.584 
L 57.6 41.472 
" style="fill:none;stroke:#000000;stroke-linecap:square;stroke-linejoin:miter;stroke-width:0.8;"/>
   </g>
   <g id="patch_4">
    <path d="M 414.72 307.584 
L 414.72 41.472 
" style="fill:none;stroke:#000000;stroke-linecap:square;stroke-linejoin:miter;stroke-width:0.8;"/>
   </g>
   <g id="patch_5">
    <path d="M 57.6 307.584 
L 414.72 307.584 
" style="fill:none;stroke:#000000;stroke-linecap:square;stroke-linejoin:miter;stroke-width:0.8;"/>
   </g>
   <g id="patch_6">
    <path d="M 57.6 41.472 
L 414.72 41.472 
" style="fill:none;stroke:#000000;stroke-linecap:square;stroke-linejoin:miter;stroke-width:0.8;"/>
   </g>
   <g id="legend_1">
    <g id="patch_7">
     <path d="M 64.6 122.862625 
L 130.959375 122.862625 
Q 132.959375 122.862625 132.959375 120.862625 
L 132.959375 48.472 
Q 132.959375 46.472 130.959375 46.472 
L 64.6 46.472 
Q 62.6 46.472 62.6 48.472 
L 62.6 120.862625 
Q 62.6 122.862625 64.6 122.862625 
z
" style="fill:#ffffff;opacity:0.8;stroke:#cccccc;stroke-linejoin:miter;"/>
    </g>
    <g id="line2d_25">
     <path d="M 66.6 54.570438 
L 86.6 54.570438 
" style="fill:none;stroke:#1f77b4;stroke-linecap:square;stroke-width:1.5;"/>
    </g>
    <g id="line2d_26"/>
    <g id="text_17">
     <!-- VEGFA -->
     <defs>
      <path d="M 28.609375 0 
L 0.78125 72.90625 
L 11.078125 72.90625 
L 34.1875 11.53125 
L 57.328125 72.90625 
L 67.578125 72.90625 
L 39.796875 0 
z
" id="DejaVuSans-86"/>
      <path d="M 9.8125 72.90625 
L 55.90625 72.90625 
L 55.90625 64.59375 
L 19.671875 64.59375 
L 19.671875 43.015625 
L 54.390625 43.015625 
L 54.390625 34.71875 
L 19.671875 34.71875 
L 19.671875 8.296875 
L 56.78125 8.296875 
L 56.78125 0 
L 9.8125 0 
z
" id="DejaVuSans-69"/>
      <path d="M 59.515625 10.40625 
L 59.515625 29.984375 
L 43.40625 29.984375 
L 43.40625 38.09375 
L 69.28125 38.09375 
L 69.28125 6.78125 
Q 63.578125 2.734375 56.6875 0.65625 
Q 49.8125 -1.421875 42 -1.421875 
Q 24.90625 -1.421875 15.25 8.5625 
Q 5.609375 18.5625 5.609375 36.375 
Q 5.609375 54.25 15.25 64.234375 
Q 24.90625 74.21875 42 74.21875 
Q 49.125 74.21875 55.546875 72.453125 
Q 61.96875 70.703125 67.390625 67.28125 
L 67.390625 56.78125 
Q 61.921875 61.421875 55.765625 63.765625 
Q 49.609375 66.109375 42.828125 66.109375 
Q 29.4375 66.109375 22.71875 58.640625 
Q 16.015625 51.171875 16.015625 36.375 
Q 16.015625 21.625 22.71875 14.15625 
Q 29.4375 6.6875 42.828125 6.6875 
Q 48.046875 6.6875 52.140625 7.59375 
Q 56.25 8.5 59.515625 10.40625 
z
" id="DejaVuSans-71"/>
      <path d="M 9.8125 72.90625 
L 51.703125 72.90625 
L 51.703125 64.59375 
L 19.671875 64.59375 
L 19.671875 43.109375 
L 48.578125 43.109375 
L 48.578125 34.8125 
L 19.671875 34.8125 
L 19.671875 0 
L 9.8125 0 
z
" id="DejaVuSans-70"/>
      <path d="M 34.1875 63.1875 
L 20.796875 26.90625 
L 47.609375 26.90625 
z
M 28.609375 72.90625 
L 39.796875 72.90625 
L 67.578125 0 
L 57.328125 0 
L 50.6875 18.703125 
L 17.828125 18.703125 
L 11.1875 0 
L 0.78125 0 
z
" id="DejaVuSans-65"/>
     </defs>
     <g transform="translate(94.6 58.070438)scale(0.1 -0.1)">
      <use xlink:href="#DejaVuSans-86"/>
      <use x="68.408203" xlink:href="#DejaVuSans-69"/>
      <use x="131.591797" xlink:href="#DejaVuSans-71"/>
      <use x="209.082031" xlink:href="#DejaVuSans-70"/>
      <use x="257.476562" xlink:href="#DejaVuSans-65"/>
     </g>
    </g>
    <g id="line2d_27">
     <path d="M 66.6 69.248563 
L 86.6 69.248563 
" style="fill:none;stroke:#ff7f0e;stroke-dasharray:6,2.25;stroke-dashoffset:0;stroke-width:1.5;"/>
    </g>
    <g id="line2d_28"/>
    <g id="text_18">
     <!-- PGF -->
     <defs>
      <path d="M 19.671875 64.796875 
L 19.671875 37.40625 
L 32.078125 37.40625 
Q 38.96875 37.40625 42.71875 40.96875 
Q 46.484375 44.53125 46.484375 51.125 
Q 46.484375 57.671875 42.71875 61.234375 
Q 38.96875 64.796875 32.078125 64.796875 
z
M 9.8125 72.90625 
L 32.078125 72.90625 
Q 44.34375 72.90625 50.609375 67.359375 
Q 56.890625 61.8125 56.890625 51.125 
Q 56.890625 40.328125 50.609375 34.8125 
Q 44.34375 29.296875 32.078125 29.296875 
L 19.671875 29.296875 
L 19.671875 0 
L 9.8125 0 
z
" id="DejaVuSans-80"/>
     </defs>
     <g transform="translate(94.6 72.748563)scale(0.1 -0.1)">
      <use xlink:href="#DejaVuSans-80"/>
      <use x="60.302734" xlink:href="#DejaVuSans-71"/>
      <use x="137.792969" xlink:href="#DejaVuSans-70"/>
     </g>
    </g>
    <g id="line2d_29">
     <path d="M 66.6 83.926688 
L 86.6 83.926688 
" style="fill:none;stroke:#2ca02c;stroke-dasharray:1.5,1.5;stroke-dashoffset:0;stroke-width:1.5;"/>
    </g>
    <g id="line2d_30"/>
    <g id="text_19">
     <!-- VEGFB -->
     <defs>
      <path d="M 19.671875 34.8125 
L 19.671875 8.109375 
L 35.5 8.109375 
Q 43.453125 8.109375 47.28125 11.40625 
Q 51.125 14.703125 51.125 21.484375 
Q 51.125 28.328125 47.28125 31.5625 
Q 43.453125 34.8125 35.5 34.8125 
z
M 19.671875 64.796875 
L 19.671875 42.828125 
L 34.28125 42.828125 
Q 41.5 42.828125 45.03125 45.53125 
Q 48.578125 48.25 48.578125 53.8125 
Q 48.578125 59.328125 45.03125 62.0625 
Q 41.5 64.796875 34.28125 64.796875 
z
M 9.8125 72.90625 
L 35.015625 72.90625 
Q 46.296875 72.90625 52.390625 68.21875 
Q 58.5 63.53125 58.5 54.890625 
Q 58.5 48.1875 55.375 44.234375 
Q 52.25 40.28125 46.1875 39.3125 
Q 53.46875 37.75 57.5 32.78125 
Q 61.53125 27.828125 61.53125 20.40625 
Q 61.53125 10.640625 54.890625 5.3125 
Q 48.25 0 35.984375 0 
L 9.8125 0 
z
" id="DejaVuSans-66"/>
     </defs>
     <g transform="translate(94.6 87.426688)scale(0.1 -0.1)">
      <use xlink:href="#DejaVuSans-86"/>
      <use x="68.408203" xlink:href="#DejaVuSans-69"/>
      <use x="131.591797" xlink:href="#DejaVuSans-71"/>
      <use x="209.082031" xlink:href="#DejaVuSans-70"/>
      <use x="266.601562" xlink:href="#DejaVuSans-66"/>
     </g>
    </g>
    <g id="line2d_31">
     <path d="M 66.6 98.604813 
L 86.6 98.604813 
" style="fill:none;stroke:#d62728;stroke-dasharray:4.5,1.5,2.25,1.5;stroke-dashoffset:0;stroke-width:1.5;"/>
    </g>
    <g id="line2d_32"/>
    <g id="text_20">
     <!-- VEGFC -->
     <defs>
      <path d="M 64.40625 67.28125 
L 64.40625 56.890625 
Q 59.421875 61.53125 53.78125 63.8125 
Q 48.140625 66.109375 41.796875 66.109375 
Q 29.296875 66.109375 22.65625 58.46875 
Q 16.015625 50.828125 16.015625 36.375 
Q 16.015625 21.96875 22.65625 14.328125 
Q 29.296875 6.6875 41.796875 6.6875 
Q 48.140625 6.6875 53.78125 8.984375 
Q 59.421875 11.28125 64.40625 15.921875 
L 64.40625 5.609375 
Q 59.234375 2.09375 53.4375 0.328125 
Q 47.65625 -1.421875 41.21875 -1.421875 
Q 24.65625 -1.421875 15.125 8.703125 
Q 5.609375 18.84375 5.609375 36.375 
Q 5.609375 53.953125 15.125 64.078125 
Q 24.65625 74.21875 41.21875 74.21875 
Q 47.75 74.21875 53.53125 72.484375 
Q 59.328125 70.75 64.40625 67.28125 
z
" id="DejaVuSans-67"/>
     </defs>
     <g transform="translate(94.6 102.104813)scale(0.1 -0.1)">
      <use xlink:href="#DejaVuSans-86"/>
      <use x="68.408203" xlink:href="#DejaVuSans-69"/>
      <use x="131.591797" xlink:href="#DejaVuSans-71"/>
      <use x="209.082031" xlink:href="#DejaVuSans-70"/>
      <use x="266.601562" xlink:href="#DejaVuSans-67"/>
     </g>
    </g>
    <g id="line2d_33">
     <path d="M 66.6 113.282938 
L 86.6 113.282938 
" style="fill:none;stroke:#9467bd;stroke-dasharray:7.5,1.5,1.5,1.5;stroke-dashoffset:0;stroke-width:1.5;"/>
    </g>
    <g id="line2d_34"/>
    <g id="text_21">
     <!-- VEGFD -->
     <defs>
      <path d="M 19.671875 64.796875 
L 19.671875 8.109375 
L 31.59375 8.109375 
Q 46.6875 8.109375 53.6875 14.9375 
Q 60.6875 21.78125 60.6875 36.53125 
Q 60.6875 51.171875 53.6875 57.984375 
Q 46.6875 64.796875 31.59375 64.796875 
z
M 9.8125 72.90625 
L 30.078125 72.90625 
Q 51.265625 72.90625 61.171875 64.09375 
Q 71.09375 55.28125 71.09375 36.53125 
Q 71.09375 17.671875 61.125 8.828125 
Q 51.171875 0 30.078125 0 
L 9.8125 0 
z
" id="DejaVuSans-68"/>
     </defs>
     <g transform="translate(94.6 116.782938)scale(0.1 -0.1)">
      <use xlink:href="#DejaVuSans-86"/>
      <use x="68.408203" xlink:href="#DejaVuSans-69"/>
      <use x="131.591797" xlink:href="#DejaVuSans-71"/>
      <use x="209.082031" xlink:href="#DejaVuSans-70"/>
      <use x="266.601562" xlink:href="#DejaVuSans-68"/>
     </g>
    </g>
   </g>
  </g>
 </g>
 <defs>
  <clipPath id="p7a3fc241de">
   <rect height="266.112" width="357.12" x="57.6" y="41.472"/>
  </clipPath>
 </defs>
</svg>
